<svg xmlns="http://www.w3.org/2000/svg" viewBox="0 0 163 21" width="163" height="21"><title>logo (1)-svg</title><style>
		tspan { white-space:pre }
		.shp0 { fill: #ffffff } 
		.shp1 { fill: #f68a1f } 
		.shp2 { fill: #d45c36 } 
	</style><path id="Layer" class="shp0" d="M28.14 3.11L28.14 17.85L24.69 17.85L24.69 3.11L28.14 3.11Z"></path><path id="Layer" class="shp0" d="M43.32 17.85L39.87 17.85L34.1 8.76L34.1 17.85L30.64 17.85L30.64 3.11L34.1 3.11L39.87 12.24L39.87 3.11L43.32 3.11L43.32 17.85Z"></path><path id="Layer" class="shp0" d="M50.96 18C49.92 18 48.99 17.82 48.17 17.47C47.35 17.12 46.69 16.6 46.19 15.92C45.71 15.23 45.45 14.41 45.42 13.44L49.1 13.44C49.15 13.99 49.33 14.41 49.64 14.7C49.95 14.98 50.36 15.12 50.86 15.12C51.37 15.12 51.77 15 52.07 14.76C52.36 14.51 52.51 14.17 52.51 13.73C52.51 13.37 52.39 13.07 52.15 12.83C51.92 12.59 51.63 12.4 51.28 12.24C50.94 12.09 50.46 11.91 49.83 11.72C48.91 11.42 48.16 11.13 47.58 10.84C47.01 10.54 46.51 10.11 46.09 9.53C45.67 8.96 45.46 8.21 45.46 7.29C45.46 5.91 45.94 4.84 46.9 4.07C47.85 3.29 49.1 2.9 50.63 2.9C52.2 2.9 53.45 3.29 54.41 4.07C55.37 4.84 55.88 5.92 55.94 7.31L52.21 7.31C52.18 6.83 52.01 6.46 51.7 6.19C51.39 5.91 51 5.77 50.51 5.77C50.1 5.77 49.76 5.89 49.5 6.13C49.25 6.36 49.12 6.68 49.12 7.12C49.12 7.59 49.33 7.97 49.77 8.23C50.2 8.5 50.87 8.78 51.78 9.09C52.7 9.41 53.44 9.72 54.01 10.02C54.58 10.31 55.08 10.74 55.5 11.3C55.92 11.86 56.13 12.58 56.13 13.46C56.13 14.3 55.92 15.06 55.5 15.75C55.1 16.44 54.5 16.98 53.72 17.39C52.94 17.79 52.02 18 50.96 18Z"></path><path id="Layer" class="shp0" d="M61.64 3.11L61.64 11.93C61.64 12.81 61.85 13.49 62.27 13.96C62.69 14.44 63.3 14.68 64.11 14.68C64.91 14.68 65.53 14.44 65.96 13.96C66.4 13.49 66.61 12.81 66.61 11.93L66.61 3.11L70.06 3.11L70.06 11.91C70.06 13.22 69.79 14.34 69.26 15.25C68.72 16.16 67.99 16.84 67.08 17.3C66.17 17.77 65.16 18 64.05 18C62.93 18 61.93 17.77 61.04 17.32C60.16 16.86 59.47 16.18 58.96 15.27C58.45 14.34 58.19 13.22 58.19 11.91L58.19 3.11L61.64 3.11Z"></path><path id="Layer" fill-rule="evenodd" class="shp0" d="M79.72 17.85L76.77 12.28L75.94 12.28L75.94 17.85L72.49 17.85L72.49 3.11L78.28 3.11C79.4 3.11 80.35 3.31 81.13 3.72C81.93 4.12 82.52 4.68 82.91 5.4C83.3 6.1 83.49 6.88 83.49 7.75C83.49 8.73 83.22 9.6 82.69 10.37C82.16 11.14 81.38 11.69 80.34 12.01L83.61 17.85L79.72 17.85ZM75.94 9.74L78.08 9.74C78.71 9.74 79.19 9.58 79.5 9.26C79.82 8.94 79.98 8.48 79.98 7.9C79.98 7.34 79.82 6.89 79.5 6.57C79.19 6.25 78.71 6.09 78.08 6.09L75.94 6.09L75.94 9.74Z"></path><path id="Layer" class="shp0" d="M89.11 5.98L89.11 8.97L94.58 8.97L94.58 11.74L89.11 11.74L89.11 14.97L95.19 14.97L95.19 17.85L85.66 17.85L85.66 3.11L95.02 3.11L95.02 5.98L89.11 5.98Z"></path><path id="Layer" fill-rule="evenodd" class="shp0" d="M102.91 3.11C104.4 3.11 105.71 3.42 106.82 4.03C107.94 4.65 108.8 5.52 109.41 6.64C110.03 7.74 110.34 9.02 110.34 10.48C110.34 11.92 110.03 13.2 109.41 14.32C108.8 15.44 107.93 16.31 106.8 16.93C105.69 17.54 104.39 17.85 102.91 17.85L97.6 17.85L97.6 3.11L102.91 3.11ZM102.68 14.74C103.99 14.74 105.01 14.37 105.73 13.63C106.46 12.89 106.82 11.84 106.82 10.48C106.82 9.12 106.46 8.06 105.73 7.31C105.01 6.55 103.99 6.17 102.68 6.17L101.05 6.17L101.05 14.74L102.68 14.74Z"></path><path id="Layer" class="shp0" d="M127.41 3.32L127.41 17.85L125.58 17.85L125.58 7.01L120.93 17.85L119.64 17.85L114.98 6.99L114.98 17.85L113.14 17.85L113.14 3.32L115.12 3.32L120.29 15.33L125.46 3.32L127.41 3.32Z"></path><path id="Layer" class="shp0" d="M132.37 3.21L132.37 17.85L130.53 17.85L130.53 3.21L132.37 3.21Z"></path><path id="Layer" class="shp0" d="M146.57 17.85L144.73 17.85L137.34 6.2L137.34 17.85L135.5 17.85L135.5 3.19L137.34 3.19L144.73 14.83L144.73 3.19L146.57 3.19L146.57 17.85Z"></path><path id="Layer" class="shp0" d="M151.54 4.77L151.54 9.66L158.85 9.66L158.85 11.23L151.54 11.23L151.54 16.28L159.46 16.28L159.46 17.85L149.7 17.85L149.7 3.19L159.29 3.19L159.29 4.77L151.54 4.77Z"></path><path id="Layer" class="shp1" d="M9.8 3.51L9.2 2.89C8.02 1.66 6.1 1.66 4.92 2.89L2.78 5.12C1.6 6.35 1.6 8.34 2.78 9.57L8.73 15.76L9.8 14.65L3.85 8.46C3.26 7.84 3.26 6.85 3.85 6.23L5.99 4C6.58 3.39 7.54 3.39 8.13 4L8.73 4.62L9.8 3.51Z"></path><path id="Layer" class="shp1" d="M10.39 6.35L16.34 12.54C16.93 13.16 16.93 14.15 16.34 14.77L14.2 17C13.61 17.61 12.65 17.61 12.06 17L11.47 16.38L10.39 17.49L10.99 18.11C12.17 19.34 14.09 19.34 15.27 18.11L17.41 15.88C18.6 14.65 18.6 12.66 17.41 11.43L11.47 5.24L10.39 6.35Z"></path><path id="Layer" class="shp2" d="M14.08 10.81L8.13 17C7.54 17.61 6.58 17.61 5.99 17L3.85 14.77C3.26 14.15 3.26 13.16 3.85 12.54L4.44 11.92L3.37 10.81L2.78 11.43C1.6 12.66 1.6 14.65 2.78 15.88L4.92 18.11C6.1 19.34 8.02 19.34 9.2 18.11L15.15 11.92L14.08 10.81Z"></path><path id="Layer" class="shp2" d="M15.75 9.08L16.34 8.46C16.93 7.84 16.93 6.85 16.34 6.23L14.2 4C13.61 3.39 12.65 3.39 12.06 4L6.11 10.19L5.04 9.08L10.99 2.89C12.17 1.66 14.09 1.66 15.27 2.89L17.41 5.12C18.6 6.35 18.6 8.34 17.41 9.57L16.82 10.19L15.75 9.08Z"></path></svg>